<?xml version="1.0" encoding="iso-8859-1"?>
<!-- Uploaded to: SVG Repo, www.svgrepo.com, Generator: SVG Repo Mixer Tools -->
<svg fill="#000000" height="800px" width="800px" version="1.1" id="Layer_1" xmlns="http://www.w3.org/2000/svg" xmlns:xlink="http://www.w3.org/1999/xlink" 
	 viewBox="0 0 512 512" xml:space="preserve">
<g>
	<g>
		<path d="M151.788,156.886H10.449C4.678,156.886,0,161.564,0,167.335v176.258c0,5.771,4.678,10.449,10.449,10.449h141.339
			c5.771,0,10.449-4.678,10.449-10.449V167.335C162.237,161.564,157.559,156.886,151.788,156.886z M141.339,333.144H20.898v-155.36
			h120.441V333.144z"/>
	</g>
</g>
<g>
	<g>
		<path d="M501.549,156.886h-292.94c-5.771,0-10.449,4.678-10.449,10.449v176.258c0,5.771,4.678,10.449,10.449,10.449h292.94
			c5.771,0,10.449-4.678,10.449-10.449V167.335C511.998,161.564,507.32,156.886,501.549,156.886z M491.101,333.144H219.058v-155.36
			h272.043V333.144z"/>
	</g>
</g>
<g>
	<g>
		<path d="M303.384,381.964H10.449C4.678,381.964,0,386.641,0,392.412v91.898c0,5.771,4.678,10.449,10.449,10.449h292.935
			c5.771,0,10.449-4.678,10.449-10.449v-91.898C313.833,386.642,309.155,381.964,303.384,381.964z M292.935,473.861H20.898v-71
			h272.037V473.861z"/>
	</g>
</g>
<g>
	<g>
		<path d="M501.551,381.964H355.08c-5.771,0-10.449,4.678-10.449,10.449v91.898c0,5.771,4.678,10.449,10.449,10.449h146.471
			c5.771,0,10.449-4.678,10.449-10.449v-91.898C512,386.642,507.322,381.964,501.551,381.964z M491.102,473.861H365.529v-71h125.573
			V473.861z"/>
	</g>
</g>
<g>
	<g>
		<path d="M501.551,17.241H10.449C4.678,17.241,0,21.919,0,27.69v91.897c0,5.771,4.678,10.449,10.449,10.449h491.102
			c5.771,0,10.449-4.678,10.449-10.449V27.69C512,21.919,507.322,17.241,501.551,17.241z M491.102,109.138H20.898V38.139h470.204
			V109.138z"/>
	</g>
</g>
<g>
	<g>
		<path d="M457.034,204.816H253.125c-5.771,0-10.449,4.678-10.449,10.449v28.718c0,5.771,4.678,10.449,10.449,10.449h203.909
			c5.771,0,10.449-4.678,10.449-10.449v-28.718C467.483,209.494,462.805,204.816,457.034,204.816z M446.585,233.534H263.574v-7.82
			h183.011V233.534z"/>
	</g>
</g>
<g>
	<g>
		<path d="M457.034,256.51H253.125c-5.771,0-10.449,4.678-10.449,10.449v28.719c0,5.771,4.678,10.449,10.449,10.449h203.909
			c5.771,0,10.449-4.678,10.449-10.449v-28.719C467.483,261.188,462.805,256.51,457.034,256.51z M446.585,285.229H263.574v-7.821
			h183.011V285.229z"/>
	</g>
</g>
<g>
	<g>
		<path d="M134.194,273.45l-17.992-17.993l17.992-17.992c1.959-1.956,3.059-4.614,3.059-7.386c0-2.771-1.101-5.429-3.062-7.388
			l-20.312-20.305c-4.08-4.079-10.697-4.078-14.777,0.002l-17.986,17.991l-17.993-17.993c-1.959-1.959-4.617-3.061-7.39-3.061
			c-2.771,0-5.429,1.101-7.388,3.062l-20.304,20.312c-4.08,4.081-4.078,10.698,0.002,14.777l17.99,17.984l-17.99,17.985
			c-4.08,4.079-4.082,10.694-0.003,14.776l20.305,20.318c1.959,1.96,4.617,3.063,7.389,3.063c0,0,0,0,0.001,0
			c2.771,0,5.429-1.101,7.389-3.062l17.993-17.997l17.993,17.997c1.959,1.96,4.617,3.062,7.39,3.062c2.772,0,5.43-1.101,7.389-3.062
			l20.305-20.312C138.275,284.145,138.273,277.53,134.194,273.45z M106.5,286.374l-17.993-17.997
			c-1.959-1.96-4.617-3.062-7.39-3.062c-2.772,0-5.429,1.101-7.39,3.062l-17.992,17.995l-5.531-5.534l17.994-17.989
			c1.96-1.959,3.062-4.618,3.062-7.389c0-2.772-1.101-5.43-3.062-7.39l-17.993-17.986l5.53-5.531l17.993,17.992
			c1.959,1.959,4.617,3.06,7.39,3.06c2.772,0,5.429-1.101,7.388-3.062l17.987-17.992l5.531,5.53l-17.99,17.99
			c-4.08,4.08-4.081,10.697,0,14.777l17.994,17.995L106.5,286.374z"/>
	</g>
</g>
<g>
	<g>
		<path d="M159.513,73.404H42.484c-5.771,0-10.449,4.678-10.449,10.449c0,5.771,4.678,10.449,10.449,10.449h117.029
			c5.771,0,10.449-4.678,10.449-10.449C169.962,78.082,165.284,73.404,159.513,73.404z"/>
	</g>
</g>
<g>
	<g>
		<path d="M214.716,73.404h-23.714c-5.771,0-10.449,4.678-10.449,10.449c0,5.771,4.678,10.449,10.449,10.449h23.714
			c5.771,0,10.449-4.678,10.449-10.449C225.165,78.082,220.487,73.404,214.716,73.404z"/>
	</g>
</g>
</svg>